<?xml version="1.0" encoding="UTF-8"?>
<!-- Language-neutral, code-native schematic. Localized meaning is supplied by the surrounding alt text and caption. -->
<svg xmlns="http://www.w3.org/2000/svg" viewBox="0 0 1200 480" role="img" aria-hidden="true" focusable="false" preserveAspectRatio="xMidYMid meet" style="width:100%;height:auto;color:currentColor">
  <defs>
    <marker id="j3-arrow" viewBox="0 0 12 12" refX="10" refY="6" markerWidth="10" markerHeight="10" orient="auto">
      <path d="M2 2l8 4-8 4" fill="none" stroke="currentColor" stroke-width="1.6" stroke-linecap="round" stroke-linejoin="round"/>
    </marker>
  </defs>

  <g fill="none" stroke="currentColor" stroke-width="3" stroke-opacity=".42" stroke-linecap="round" marker-end="url(#j3-arrow)">
    <path d="M310 240H484"/>
    <path d="M716 240h174"/>
  </g>
  <circle cx="397" cy="240" r="4" fill="currentColor" fill-opacity=".5"/>
  <circle cx="803" cy="240" r="4" fill="currentColor" fill-opacity=".5"/>

  <!-- Preserved specimen: pinned butterfly inside a collection ring. -->
  <g transform="translate(200 240)" fill="none" stroke="currentColor" stroke-linecap="round" stroke-linejoin="round">
    <circle r="110" stroke-width="3" stroke-opacity=".2"/>
    <circle r="88" stroke-width="3" stroke-opacity=".72"/>
    <path d="M0-62V62" stroke-width="4" stroke-opacity=".82"/>
    <circle cy="-45" r="9" fill="currentColor" fill-opacity=".78" stroke="none"/>
    <path d="M-5-29C-34-68-78-59-69-19c6 27 37 39 64 23M5-29C34-68 78-59 69-19 63 8 32 20 5 4M-4 9c-24 3-43 21-35 43 9 23 34 17 43-5M4 9c24 3 43 21 35 43-9 23-34 17-43-5" stroke-width="4" stroke-opacity=".88"/>
    <path d="M-9-37L-27-58M9-37l18-21" stroke-width="3" stroke-opacity=".6"/>
    <path d="M-26 78h52" stroke-width="3" stroke-opacity=".4"/>
  </g>

  <!-- Retained material: closed vial with a distinct sample layer. -->
  <g transform="translate(600 240)" fill="none" stroke="currentColor" stroke-linecap="round" stroke-linejoin="round">
    <circle r="110" stroke-width="3" stroke-opacity=".2"/>
    <rect x="-51" y="-70" width="102" height="140" rx="30" stroke-width="4" stroke-opacity=".84"/>
    <path d="M-42-70v-25h84v25M-46-83h92" stroke-width="4" stroke-opacity=".72"/>
    <path d="M-46 19c24-10 68-10 92 0v21c0 17-13 30-30 30h-32c-17 0-30-13-30-30z" fill="currentColor" fill-opacity=".13" stroke-width="3" stroke-opacity=".62"/>
    <circle cx="-18" cy="39" r="5" fill="currentColor" fill-opacity=".55" stroke="none"/>
    <circle cx="8" cy="50" r="4" fill="currentColor" fill-opacity=".38" stroke="none"/>
    <circle cx="23" cy="31" r="3" fill="currentColor" fill-opacity=".45" stroke="none"/>
  </g>

  <!-- Sequence record: neutral repository card and sequence lanes, with no fictional identifiers. -->
  <g transform="translate(1000 240)" fill="none" stroke="currentColor" stroke-linecap="round" stroke-linejoin="round">
    <circle r="110" stroke-width="3" stroke-opacity=".2"/>
    <rect x="-76" y="-67" width="152" height="134" rx="16" stroke-width="4" stroke-opacity=".84"/>
    <path d="M-76-29H76" stroke-width="3" stroke-opacity=".38"/>
    <circle cx="-52" cy="-48" r="5" fill="currentColor" fill-opacity=".55" stroke="none"/>
    <circle cx="-34" cy="-48" r="5" fill="currentColor" fill-opacity=".35" stroke="none"/>
    <path d="M-53-5h29M-14-5h42M38-5h15M-53 17h17M-26 17h46M30 17h23M-53 39h38M-5 39h22M27 39h26" stroke-width="7" stroke-opacity=".7"/>
  </g>
</svg>
